<svg
            width="368"
            height="368"
            viewBox="0 0 368 368"
            fill="none"
            xmlns="http://www.w3.org/2000/svg"
          >
            <circle
              cx="184"
              cy="184"
              r="182"
              stroke="white"
              stroke-width="4"
              class="logoSVG-1"
            ></circle>
            <path
              d="M61.7759 234.726H47.8101L44.9185 245H40.7964L53.7163 200.888H55.8081L68.7896 245H64.6982L61.7759 234.726ZM48.8867 230.942H60.73L54.916 210.608L54.793 208.978L54.6699 210.608L48.8867 230.942ZM97.1826 245L78.7871 212.885L78.418 210.978V245H74.4497V200.888H76.5107L94.9062 233.034L95.3062 234.91V200.888H99.2744V245H97.1826ZM134.22 234.172C134.22 235.669 133.933 237.074 133.358 238.386C132.805 239.699 132.036 240.847 131.051 241.832C130.067 242.816 128.908 243.595 127.575 244.169C126.263 244.723 124.858 245 123.361 245H109.395V200.888H123.361C124.858 200.888 126.263 201.175 127.575 201.749C128.908 202.303 130.067 203.072 131.051 204.056C132.036 205.041 132.805 206.199 133.358 207.532C133.933 208.845 134.22 210.25 134.22 211.747V234.172ZM130.251 211.747C130.251 210.762 130.067 209.85 129.698 209.009C129.329 208.147 128.816 207.399 128.16 206.763C127.524 206.107 126.775 205.594 125.914 205.225C125.073 204.856 124.161 204.671 123.176 204.671H113.363V241.216H123.176C124.161 241.216 125.073 241.032 125.914 240.663C126.775 240.293 127.524 239.791 128.16 239.155C128.816 238.52 129.329 237.781 129.698 236.94C130.067 236.079 130.251 235.156 130.251 234.172V211.747ZM164.397 245L152.431 226.174H146.986V245H143.018V200.888H157.014C158.511 200.888 159.916 201.175 161.229 201.749C162.541 202.303 163.689 203.072 164.674 204.056C165.658 205.041 166.427 206.199 166.981 207.532C167.555 208.845 167.842 210.25 167.842 211.747V215.315C167.842 216.812 167.555 218.227 166.981 219.56C166.427 220.873 165.658 222.021 164.674 223.005C163.689 223.99 162.541 224.769 161.229 225.343C159.916 225.897 158.511 226.174 157.014 226.174L168.98 245H164.397ZM163.874 211.747C163.874 210.762 163.689 209.85 163.32 209.009C162.951 208.147 162.449 207.399 161.813 206.763C161.177 206.107 160.429 205.594 159.567 205.225C158.727 204.856 157.814 204.671 156.83 204.671H146.986V222.39H156.83C157.814 222.39 158.727 222.206 159.567 221.836C160.429 221.467 161.177 220.965 161.813 220.329C162.449 219.673 162.951 218.924 163.32 218.083C163.689 217.222 163.874 216.299 163.874 215.315V211.747ZM193.128 234.726H179.163L176.271 245H172.149L185.069 200.888H187.161L200.142 245H196.051L193.128 234.726ZM180.239 230.942H192.083L186.269 210.608L186.146 208.978L186.022 210.608L180.239 230.942ZM214.6 204.671V245H210.632V204.671H200.111V200.888H225.121V204.671H214.6ZM231.458 245V200.888H256.282V204.671H235.426V221.067H252.314V224.851H235.426V241.216H256.282V245H231.458ZM288.059 234.787C288.059 236.284 287.772 237.689 287.198 239.001C286.644 240.314 285.875 241.462 284.891 242.447C283.906 243.431 282.758 244.21 281.445 244.785C280.133 245.338 278.728 245.615 277.231 245.615H274.093C272.596 245.615 271.181 245.338 269.848 244.785C268.536 244.21 267.387 243.431 266.403 242.447C265.418 241.462 264.639 240.314 264.065 239.001C263.511 237.689 263.234 236.284 263.234 234.787V211.101C263.234 209.604 263.511 208.199 264.065 206.886C264.639 205.574 265.418 204.425 266.403 203.441C267.387 202.457 268.536 201.688 269.848 201.134C271.181 200.56 272.596 200.272 274.093 200.272H277.231C278.728 200.272 280.133 200.56 281.445 201.134C282.758 201.688 283.906 202.457 284.891 203.441C285.875 204.425 286.644 205.574 287.198 206.886C287.772 208.199 288.059 209.604 288.059 211.101V212.885L284.091 213.5V211.101C284.091 210.116 283.906 209.204 283.537 208.363C283.168 207.501 282.666 206.753 282.03 206.117C281.394 205.481 280.646 204.979 279.784 204.61C278.943 204.241 278.031 204.056 277.046 204.056H274.278C273.293 204.056 272.371 204.241 271.509 204.61C270.668 204.979 269.92 205.481 269.264 206.117C268.628 206.753 268.125 207.501 267.756 208.363C267.387 209.204 267.203 210.116 267.203 211.101V234.787C267.203 235.771 267.387 236.694 267.756 237.556C268.125 238.396 268.628 239.145 269.264 239.801C269.92 240.437 270.668 240.939 271.509 241.309C272.371 241.678 273.293 241.862 274.278 241.862H277.046C278.031 241.862 278.943 241.678 279.784 241.309C280.646 240.939 281.394 240.437 282.03 239.801C282.666 239.145 283.168 238.396 283.537 237.556C283.906 236.694 284.091 235.771 284.091 234.787V232.388L288.059 233.034V234.787ZM317.775 245V224.851H300.887V245H296.918V200.888H300.887V221.067H317.775V200.888H321.743V245H317.775Z"
              fill="white"
              class="logoSVG-2"
            ></path>
            <path
              d="M114.112 276.678C114.112 277.604 113.935 278.474 113.579 279.287C113.236 280.099 112.76 280.81 112.151 281.419C111.542 282.029 110.831 282.511 110.018 282.867C109.206 283.209 108.336 283.381 107.409 283.381H105.467C104.54 283.381 103.664 283.209 102.839 282.867C102.026 282.511 101.315 282.029 100.706 281.419C100.097 280.81 99.6143 280.099 99.2588 279.287C98.916 278.474 98.7446 277.604 98.7446 276.678V262.015C98.7446 261.088 98.916 260.218 99.2588 259.406C99.6143 258.593 100.097 257.882 100.706 257.273C101.315 256.664 102.026 256.188 102.839 255.845C103.664 255.489 104.54 255.312 105.467 255.312H107.409C108.336 255.312 109.206 255.489 110.018 255.845C110.831 256.188 111.542 256.664 112.151 257.273C112.76 257.882 113.236 258.593 113.579 259.406C113.935 260.218 114.112 261.088 114.112 262.015V263.119L111.656 263.5V262.015C111.656 261.405 111.542 260.84 111.313 260.32C111.084 259.787 110.773 259.323 110.38 258.93C109.986 258.536 109.523 258.225 108.99 257.997C108.469 257.768 107.904 257.654 107.295 257.654H105.581C104.972 257.654 104.4 257.768 103.867 257.997C103.347 258.225 102.883 258.536 102.477 258.93C102.083 259.323 101.772 259.787 101.544 260.32C101.315 260.84 101.201 261.405 101.201 262.015V276.678C101.201 277.287 101.315 277.858 101.544 278.392C101.772 278.912 102.083 279.375 102.477 279.782C102.883 280.175 103.347 280.486 103.867 280.715C104.4 280.943 104.972 281.058 105.581 281.058H107.295C107.904 281.058 108.469 280.943 108.99 280.715C109.523 280.486 109.986 280.175 110.38 279.782C110.773 279.375 111.084 278.912 111.313 278.392C111.542 277.858 111.656 277.287 111.656 276.678V275.192L114.112 275.592V276.678ZM134.564 276.678C134.564 277.604 134.387 278.474 134.031 279.287C133.688 280.099 133.212 280.81 132.603 281.419C131.994 282.029 131.283 282.511 130.47 282.867C129.658 283.209 128.788 283.381 127.861 283.381H125.919C124.992 283.381 124.116 283.209 123.291 282.867C122.479 282.511 121.768 282.029 121.158 281.419C120.549 280.81 120.066 280.099 119.711 279.287C119.368 278.474 119.197 277.604 119.197 276.678V262.015C119.197 261.088 119.368 260.218 119.711 259.406C120.066 258.593 120.549 257.882 121.158 257.273C121.768 256.664 122.479 256.188 123.291 255.845C124.116 255.489 124.992 255.312 125.919 255.312H127.861C128.788 255.312 129.658 255.489 130.47 255.845C131.283 256.188 131.994 256.664 132.603 257.273C133.212 257.882 133.688 258.593 134.031 259.406C134.387 260.218 134.564 261.088 134.564 262.015V276.678ZM132.108 262.015C132.108 261.405 131.994 260.84 131.765 260.32C131.537 259.787 131.226 259.323 130.832 258.93C130.438 258.536 129.975 258.225 129.442 257.997C128.921 257.768 128.356 257.654 127.747 257.654H126.033C125.424 257.654 124.853 257.768 124.319 257.997C123.799 258.225 123.335 258.536 122.929 258.93C122.536 259.323 122.225 259.787 121.996 260.32C121.768 260.84 121.653 261.405 121.653 262.015V276.678C121.653 277.287 121.768 277.858 121.996 278.392C122.225 278.912 122.536 279.375 122.929 279.782C123.335 280.175 123.799 280.486 124.319 280.715C124.853 280.943 125.424 281.058 126.033 281.058H127.747C128.356 281.058 128.921 280.943 129.442 280.715C129.975 280.486 130.438 280.175 130.832 279.782C131.226 279.375 131.537 278.912 131.765 278.392C131.994 277.858 132.108 277.287 132.108 276.678V262.015ZM157.245 283V264.281L157.073 265.442L150.732 283H149.437L143.039 265.442L142.886 264.281V283H140.43V255.692H141.706L149.989 278.087L150.065 279.096L150.142 278.087L158.406 255.692H159.701V283H157.245ZM181.315 265.804C181.315 266.731 181.137 267.601 180.782 268.413C180.439 269.226 179.963 269.937 179.354 270.546C178.744 271.155 178.027 271.638 177.202 271.993C176.389 272.336 175.52 272.507 174.593 272.507H168.404V283H165.947V255.692H174.593C175.52 255.692 176.389 255.87 177.202 256.226C178.027 256.568 178.744 257.044 179.354 257.654C179.963 258.263 180.439 258.98 180.782 259.806C181.137 260.618 181.315 261.488 181.315 262.415V265.804ZM178.858 262.415C178.858 261.805 178.744 261.24 178.516 260.72C178.287 260.187 177.97 259.723 177.563 259.33C177.17 258.923 176.707 258.606 176.173 258.377C175.653 258.149 175.088 258.035 174.479 258.035H168.404V270.165H174.479C175.088 270.165 175.653 270.051 176.173 269.822C176.707 269.594 177.17 269.283 177.563 268.889C177.97 268.496 178.287 268.039 178.516 267.518C178.744 266.985 178.858 266.414 178.858 265.804V262.415ZM200.986 276.678C200.986 277.604 200.809 278.474 200.453 279.287C200.11 280.099 199.634 280.81 199.025 281.419C198.416 282.029 197.705 282.511 196.892 282.867C196.08 283.209 195.21 283.381 194.283 283.381H192.341C191.414 283.381 190.538 283.209 189.713 282.867C188.9 282.511 188.189 282.029 187.58 281.419C186.971 280.81 186.488 280.099 186.133 279.287C185.79 278.474 185.619 277.604 185.619 276.678V255.692H188.075V276.678C188.075 277.287 188.189 277.858 188.418 278.392C188.646 278.912 188.958 279.375 189.351 279.782C189.757 280.175 190.221 280.486 190.741 280.715C191.274 280.943 191.846 281.058 192.455 281.058H194.169C194.778 281.058 195.343 280.943 195.864 280.715C196.397 280.486 196.86 280.175 197.254 279.782C197.647 279.375 197.958 278.912 198.187 278.392C198.416 277.858 198.53 277.287 198.53 276.678V255.692H200.986V276.678ZM213.479 258.035V283H211.022V258.035H204.509V255.692H219.991V258.035H213.479ZM223.914 283V255.692H226.371V283H223.914ZM246.708 283L235.321 263.119L235.092 261.938V283H232.636V255.692H233.912L245.299 275.592L245.547 276.754V255.692H248.003V283H246.708ZM269.236 283H268.456L267.027 280.81C266.431 281.597 265.707 282.226 264.856 282.695C264.006 283.152 263.06 283.381 262.019 283.381H260.591C259.664 283.381 258.788 283.209 257.963 282.867C257.15 282.511 256.439 282.029 255.83 281.419C255.221 280.81 254.738 280.099 254.383 279.287C254.04 278.474 253.869 277.604 253.869 276.678V262.015C253.869 261.088 254.04 260.218 254.383 259.406C254.738 258.593 255.221 257.882 255.83 257.273C256.439 256.664 257.15 256.188 257.963 255.845C258.788 255.489 259.664 255.312 260.591 255.312H262.533C263.46 255.312 264.33 255.489 265.142 255.845C265.955 256.188 266.666 256.664 267.275 257.273C267.884 257.882 268.36 258.593 268.703 259.406C269.059 260.218 269.236 261.088 269.236 262.015V263.119L266.78 263.5V262.015C266.78 261.405 266.666 260.84 266.437 260.32C266.208 259.787 265.897 259.323 265.504 258.93C265.11 258.536 264.647 258.225 264.114 257.997C263.593 257.768 263.028 257.654 262.419 257.654H260.705C260.096 257.654 259.524 257.768 258.991 257.997C258.471 258.225 258.007 258.536 257.601 258.93C257.208 259.323 256.896 259.787 256.668 260.32C256.439 260.84 256.325 261.405 256.325 262.015V276.678C256.325 277.287 256.439 277.858 256.668 278.392C256.896 278.912 257.208 279.375 257.601 279.782C258.007 280.175 258.471 280.486 258.991 280.715C259.524 280.943 260.096 281.058 260.705 281.058H262.419C263.028 281.058 263.593 280.943 264.114 280.715C264.647 280.486 265.11 280.175 265.504 279.782C265.897 279.375 266.208 278.912 266.437 278.392C266.666 277.858 266.78 277.287 266.78 276.678V270.984H262.419V268.642H269.236V283Z"
              fill="white"
              class="logoSVG-3"
            ></path>
            <path
              d="M183.903 167.736L178.461 159.573C177.956 158.815 177.105 158.361 176.196 158.361H138.098C137.189 158.361 136.339 158.815 135.834 159.573L130.391 167.737C129.836 168.571 129.783 169.644 130.256 170.53C130.729 171.415 131.651 171.967 132.655 171.967H181.639C182.644 171.967 183.565 171.413 184.039 170.529C184.512 169.645 184.458 168.571 183.903 167.736ZM137.74 166.525L139.555 163.803H174.741L176.556 166.525H137.74Z"
              fill="white"
              class="logoSVG-4"
            ></path>
            <path
              d="M211.574 93.0493H102.721C101.217 93.0493 100 94.2663 100 95.7708V161.082C100 162.586 101.217 163.804 102.721 163.804H211.574C213.078 163.804 214.295 162.587 214.295 161.082V95.7708C214.295 94.2663 213.078 93.0493 211.574 93.0493ZM208.852 158.361H105.442V98.4918H208.852V158.361H208.852Z"
              fill="white"
              class="logoSVG-5"
            ></path>
            <path
              d="M263.279 74H219.737C218.233 74 217.016 75.217 217.016 76.7214V166.525C217.016 168.029 218.233 169.246 219.737 169.246H263.279C264.783 169.246 266 168.029 266 166.525V76.7214C266 75.2174 264.783 74 263.279 74ZM260.557 163.803H222.459V79.4429H260.557V163.803V163.803Z"
              fill="white"
              class="logoSVG-6"
            ></path>
            <path
              d="M260.557 90.3279H222.459C220.955 90.3279 219.737 91.5449 219.737 93.0493C219.737 94.5537 220.955 95.7708 222.459 95.7708H260.557C262.061 95.7708 263.279 94.5537 263.279 93.0493C263.279 91.5449 262.062 90.3279 260.557 90.3279Z"
              fill="white"
              class="logoSVG-7"
            ></path>
            <path
              d="M260.557 103.935H222.459C220.955 103.935 219.737 105.152 219.737 106.656C219.737 108.161 220.955 109.378 222.459 109.378H260.557C262.061 109.378 263.279 108.161 263.279 106.656C263.279 105.152 262.062 103.935 260.557 103.935Z"
              fill="white"
              class="logoSVG-8"
            ></path>
            <path
              d="M260.557 117.541H222.459C220.955 117.541 219.737 118.758 219.737 120.263C219.737 121.767 220.955 122.984 222.459 122.984H260.557C262.061 122.984 263.279 121.767 263.279 120.263C263.279 118.758 262.062 117.541 260.557 117.541Z"
              fill="white"
              class="logoSVG-9"
            ></path>
            <path
              d="M246.951 144.754H236.065C234.561 144.754 233.344 145.971 233.344 147.476V158.361C233.344 159.865 234.561 161.083 236.065 161.083H246.951C248.455 161.083 249.672 159.866 249.672 158.361V147.476C249.672 145.971 248.455 144.754 246.951 144.754ZM244.229 155.639H238.787V150.197H244.229V155.639V155.639Z"
              fill="white"
              class="logoSVG-10"
            ></path>
          </svg>