<svg width="106" height="106" viewBox="0 0 106 106" fill="none" xmlns="http://www.w3.org/2000/svg">
<path class="fbbg" d="M92.75 0H13.25C5.94262 0 0 5.94262 0 13.25V92.75C0 100.057 5.94262 106 13.25 106H92.75C100.057 106 106 100.057 106 92.75V13.25C106 5.94262 100.057 0 92.75 0Z" fill="white"/>
<path d="M89.4375 53H72.875V39.75C72.875 36.093 75.843 36.4375 79.5 36.4375H86.125V19.875H72.875C61.8974 19.875 53 28.7724 53 39.75V53H39.75V69.5625H53V106H72.875V69.5625H82.8125L89.4375 53Z" fill="black"/>
</svg>
